<?xml version="1.0" standalone="no"?>
<!DOCTYPE svg PUBLIC "-//W3C//DTD SVG 20010904//EN"
 "http://www.w3.org/TR/2001/REC-SVG-20010904/DTD/svg10.dtd">
<svg version="1.0" xmlns="http://www.w3.org/2000/svg"
 width="1550.000000pt" height="1550.000000pt" viewBox="0 0 1550.000000 1550.000000"
 preserveAspectRatio="xMidYMid meet">
<metadata>
Created by potrace 1.14, written by Peter Selinger 2001-2017
</metadata>
<g transform="translate(0.000000,1550.000000) scale(0.100000,-0.100000)"
fill="#000000" stroke="none">
<path d="M7499 15486 c-2 -2 -45 -6 -96 -10 -92 -6 -246 -41 -314 -70 -42 -18
-93 -65 -114 -106 -24 -46 -56 -149 -70 -225 -19 -104 -19 -105 2 -105 11 0
25 -11 31 -25 8 -16 19 -25 29 -23 25 4 22 -28 -14 -142 -31 -97 -39 -137 -52
-269 -12 -120 -2 -177 37 -216 13 -14 28 -25 33 -25 12 0 28 -92 24 -145 -2
-27 -7 -117 -10 -200 -3 -82 -7 -163 -9 -180 -3 -16 -7 -65 -11 -107 -5 -72
-21 -210 -30 -268 -2 -14 -7 -45 -10 -70 -3 -25 -13 -83 -22 -130 -8 -47 -17
-96 -20 -110 -9 -50 -63 -314 -72 -349 -5 -20 -16 -70 -25 -111 -9 -41 -23
-106 -32 -145 -9 -38 -18 -81 -20 -95 -5 -26 -90 -355 -123 -475 -19 -67 -55
-189 -106 -360 -270 -896 -411 -1396 -465 -1655 -27 -126 -48 -231 -54 -265
-3 -16 -15 -79 -26 -140 -17 -94 -28 -156 -45 -270 -10 -66 -16 -103 -19 -120
-2 -11 -7 -47 -11 -80 -4 -33 -9 -69 -10 -80 -2 -11 -6 -45 -9 -75 -4 -30 -9
-71 -11 -90 -3 -19 -7 -64 -10 -100 -3 -36 -8 -81 -10 -100 -10 -73 -17 -169
-31 -425 -9 -158 -9 -451 -1 -680 22 -587 26 -5695 5 -5820 -14 -84 -25 -225
-18 -245 2 -5 5 -35 14 -140 3 -30 10 -89 15 -130 6 -41 13 -97 16 -125 3 -27
8 -63 10 -80 3 -16 7 -48 10 -70 8 -57 56 -244 72 -282 7 -18 26 -47 41 -65
16 -18 38 -48 51 -66 12 -17 28 -32 36 -32 7 0 15 -5 17 -10 4 -14 87 -42 100
-34 6 4 8 -2 3 -17 -4 -14 -3 -19 2 -12 10 14 53 6 53 -9 0 -5 4 -7 9 -4 5 4
11 0 14 -6 3 -10 10 -10 28 1 22 13 23 13 11 -2 -8 -9 -9 -18 -3 -21 5 -3 12
0 15 6 5 12 -1 -19 -11 -52 -3 -9 -2 -11 4 -5 4 6 19 11 33 13 19 2 22 0 12
-10 -6 -6 -12 -17 -12 -23 0 -5 5 -2 11 8 13 21 25 22 33 1 4 -12 2 -15 -9
-10 -8 3 -15 1 -15 -4 0 -11 23 -13 34 -3 3 4 16 8 28 10 12 2 26 9 30 16 12
19 10 -10 -2 -33 -7 -13 -7 -21 0 -25 6 -4 10 -3 9 2 -4 23 3 31 25 27 15 -2
26 2 30 11 3 8 1 15 -4 15 -6 0 -10 -4 -10 -8 0 -5 -7 -9 -15 -9 -8 0 -12 4
-9 9 8 12 -9 33 -29 35 -12 1 -17 -4 -13 -14 3 -8 1 -11 -4 -8 -6 3 -10 1 -10
-5 0 -6 -13 -2 -30 10 -30 21 -38 44 -21 54 5 4 7 -4 4 -16 -4 -19 -3 -21 7
-8 10 13 11 12 6 -3 -4 -12 -2 -17 6 -15 7 3 13 10 13 15 0 6 4 15 9 20 5 4 6
3 2 -4 -3 -6 -2 -14 4 -18 5 -3 10 0 10 7 0 10 2 10 9 -1 5 -7 14 -10 20 -7 6
4 14 0 17 -9 5 -13 9 -13 22 -3 13 11 14 11 7 -1 -6 -11 -4 -13 9 -8 10 4 21
7 24 7 4 0 1 4 -7 9 -10 7 -6 9 13 8 22 -2 24 -4 11 -14 -9 -6 -12 -14 -7 -17
5 -3 17 3 27 14 13 14 22 17 40 10 13 -5 26 -6 29 -3 3 4 14 -2 25 -11 18 -16
20 -16 28 -1 8 14 11 12 21 -10 11 -24 32 -27 32 -4 0 6 -5 7 -12 3 -6 -4 -8
-3 -4 4 3 5 0 13 -6 15 -9 4 -10 6 -1 6 6 1 19 -9 27 -21 13 -19 17 -19 32 -7
20 16 23 16 35 -3 7 -11 11 -10 20 2 9 13 10 12 5 -3 -3 -10 -6 -21 -6 -23 0
-2 -11 3 -26 12 -24 16 -25 16 -31 -5 -4 -17 -8 -19 -14 -9 -7 10 -9 10 -9 -2
0 -13 -1 -13 -10 0 -8 13 -10 13 -10 -1 0 -11 9 -16 25 -16 14 0 25 5 25 12 0
8 8 11 20 8 11 -3 20 -9 20 -14 0 -5 9 -5 20 1 11 5 29 15 40 20 12 6 25 8 30
5 4 -3 16 3 26 12 17 17 18 17 11 0 -4 -10 -7 -20 -7 -22 0 -2 -12 -1 -27 1
-15 3 -25 2 -21 -1 3 -4 14 -8 25 -10 10 -2 18 -4 18 -5 0 -1 12 -4 28 -6 15
-1 27 1 27 6 0 14 -18 21 -25 10 -3 -5 -12 -10 -18 -10 -7 0 -4 6 5 14 10 7
15 16 11 20 -4 4 0 4 10 0 9 -3 17 -10 17 -15 0 -5 5 -9 11 -9 5 0 8 4 5 8 -2
4 9 8 25 7 21 0 26 -3 17 -10 -7 -6 -14 -17 -16 -25 -3 -11 1 -11 16 3 10 9
22 14 26 10 4 -4 4 1 1 12 -6 19 -6 19 8 3 15 -19 33 -25 22 -9 -3 6 4 8 16 6
13 -3 26 -10 30 -17 7 -10 11 -10 21 1 11 11 11 13 -1 6 -10 -6 -12 -4 -7 4 6
9 11 9 22 0 8 -6 14 -8 14 -5 0 4 10 1 23 -5 21 -12 21 -11 7 6 -14 17 -14 18
8 6 12 -6 28 -9 34 -5 7 4 8 3 4 -4 -4 -7 -3 -12 3 -12 5 0 12 4 16 9 3 5 17
8 31 5 18 -3 23 -1 18 7 -4 8 -3 9 5 5 6 -4 9 -11 7 -15 -3 -4 1 -8 9 -8 8 0
12 4 9 9 -3 4 -1 8 4 8 5 0 14 -10 21 -22 6 -13 9 -15 7 -6 -3 10 -1 20 4 23
6 4 10 1 10 -5 0 -13 31 -9 43 5 5 6 7 4 4 -6 -3 -9 -1 -22 5 -30 8 -11 9 -11
4 3 -6 19 3 27 34 33 11 2 18 0 15 -6 -9 -13 9 -11 24 3 11 10 13 10 7 1 -4
-7 -3 -13 2 -13 5 0 14 -10 21 -22 11 -23 11 -23 5 2 -5 20 -4 22 6 13 16 -15
40 -6 40 15 0 13 -2 13 -13 -3 -10 -12 -16 -14 -21 -7 -4 7 -2 12 5 12 7 0 9
3 6 6 -4 4 -13 1 -22 -6 -8 -7 -15 -8 -15 -2 0 17 26 21 93 13 5 -1 5 -6 2
-11 -9 -14 2 -12 28 5 16 10 26 11 37 4 13 -9 12 -10 -2 -5 -10 3 -18 1 -18
-5 0 -6 -4 -7 -10 -4 -6 3 -7 -1 -3 -10 4 -11 8 -13 13 -5 4 6 18 12 31 12 13
1 29 6 36 11 7 5 23 10 37 11 18 2 23 -1 19 -13 -3 -9 5 -5 17 9 12 14 19 19
15 13 -3 -7 -1 -13 5 -13 6 0 8 -4 5 -10 -3 -5 -1 -10 6 -10 7 0 9 9 6 22 -5
19 -5 20 10 6 11 -12 23 -14 45 -7 24 7 29 5 24 -6 -3 -8 -1 -15 4 -15 6 0 10
5 10 10 0 6 13 10 28 10 16 0 32 3 36 7 12 13 46 10 59 -6 9 -12 9 -13 0 -7
-9 5 -11 2 -6 -10 5 -15 7 -15 15 0 5 9 7 20 3 25 -3 5 0 13 7 17 7 4 10 4 6
-1 -9 -9 9 -45 22 -45 6 0 9 6 7 13 -1 6 4 11 11 10 6 -2 18 -4 25 -5 6 -2 11
5 11 14 -1 14 2 15 16 8 9 -5 21 -6 25 -2 5 4 6 0 3 -9 -4 -9 -2 -22 4 -30 8
-11 9 -10 4 4 -5 15 -1 18 22 16 31 -2 64 9 57 20 -2 4 6 7 18 6 12 -2 21 -8
19 -15 -2 -8 3 -10 13 -6 8 3 22 9 30 12 8 3 15 2 15 -4 0 -6 -6 -13 -12 -15
-8 -4 -9 -6 -2 -6 6 -1 17 5 24 13 6 8 19 12 27 9 12 -5 14 -3 8 8 -6 11 -5
12 6 2 7 -7 17 -13 22 -13 4 0 5 6 1 13 -4 6 -4 9 1 5 4 -4 14 0 22 10 12 16
13 15 7 -3 -4 -11 -14 -26 -22 -32 -9 -7 -11 -13 -6 -13 6 0 14 3 17 7 12 12
58 13 51 1 -4 -6 -2 -8 4 -4 6 3 9 15 7 26 -2 12 0 18 6 15 5 -4 7 -10 4 -15
-3 -5 8 -8 25 -7 29 2 39 11 23 20 -5 2 -3 3 3 1 6 -1 18 3 25 9 11 10 11 9 1
-5 -9 -11 -10 -18 -2 -23 5 -3 10 -2 10 3 0 6 7 13 16 16 13 5 14 4 6 -7 -9
-10 -8 -18 3 -33 8 -10 15 -14 15 -9 0 6 4 4 9 -4 5 -8 21 -15 34 -15 14 -1
23 2 20 7 -3 5 -13 7 -23 4 -11 -3 -21 2 -24 10 -3 8 -10 12 -15 9 -5 -3 -12
1 -15 10 -5 13 -2 15 14 11 18 -5 25 4 21 26 -1 5 6 4 15 -1 9 -5 24 -8 33 -5
10 2 22 -7 32 -23 10 -17 19 -22 23 -15 4 6 2 11 -5 11 -7 0 -4 7 7 16 19 15
18 15 -2 5 -15 -7 -21 -7 -21 3 0 7 7 12 16 11 9 0 16 -3 16 -6 0 -11 28 -39
38 -39 6 0 3 6 -6 13 -16 11 -16 14 -3 32 15 20 15 20 9 -2 -3 -14 -1 -23 6
-23 6 0 11 6 11 14 0 21 17 28 24 10 3 -8 2 -12 -4 -9 -6 3 -10 1 -10 -5 0 -7
6 -10 14 -7 7 3 24 -2 37 -10 13 -9 21 -13 17 -8 -4 4 0 13 9 20 14 10 13 12
-8 10 -33 -3 -53 13 -38 31 9 11 15 11 25 3 8 -6 11 -16 7 -22 -4 -6 0 -8 10
-4 10 4 22 -1 29 -12 7 -9 22 -20 33 -24 18 -6 17 -5 -3 11 -12 9 -24 27 -27
40 -3 19 -2 21 16 11 24 -12 41 -2 19 11 -11 7 -10 9 7 7 18 -1 20 -4 12 -20
-7 -12 -16 -16 -31 -11 -14 4 -18 3 -13 -6 4 -6 18 -10 31 -7 17 3 24 0 24
-11 0 -8 3 -12 7 -9 3 4 13 1 22 -5 9 -7 13 -8 9 -4 -4 5 -3 15 3 23 13 15 33
18 24 4 -9 -15 13 -23 32 -11 15 9 14 10 -7 4 -20 -5 -23 -4 -12 7 17 18 15
30 -3 23 -9 -4 -15 0 -15 7 -1 8 -6 4 -13 -9 -7 -12 -17 -19 -22 -15 -4 5 -5
2 0 -6 5 -9 4 -12 -3 -7 -6 4 -8 14 -5 23 4 11 3 14 -6 9 -10 -6 -9 -3 0 12 7
12 15 19 18 17 2 -3 10 0 18 7 11 9 13 8 11 -1 -2 -8 5 -15 15 -16 12 -2 17 1
13 10 -3 10 0 12 11 8 11 -4 14 -2 9 5 -4 7 -3 12 3 12 5 0 9 -9 8 -19 0 -11
-4 -18 -7 -16 -3 2 -6 -5 -7 -15 -2 -19 23 -35 31 -21 3 4 4 22 2 39 -3 20 1
35 12 44 10 9 13 9 9 1 -5 -7 1 -16 12 -23 17 -9 23 -6 36 20 17 32 45 41 45
14 0 -14 -3 -14 -15 -4 -9 7 -15 8 -15 2 0 -5 7 -13 15 -16 18 -6 30 16 22 38
-4 10 -1 13 9 9 8 -3 13 -12 10 -20 -3 -8 -1 -11 5 -8 5 4 7 15 4 24 -4 12 3
21 21 30 15 6 24 14 21 17 -6 6 15 32 72 91 47 48 86 169 106 338 2 11 8 47
14 80 5 33 13 80 16 105 4 25 9 61 12 80 33 214 39 378 19 491 -9 46 -11 305
-10 929 5 2188 6 3027 5 3970 -1 558 1 1058 5 1110 12 150 6 602 -11 785 -2
22 -6 74 -10 115 -3 41 -8 86 -10 100 -2 14 -6 50 -10 80 -3 30 -10 89 -16
130 -5 41 -12 89 -14 105 -8 63 -17 131 -21 155 -2 14 -6 45 -9 70 -3 25 -7
56 -10 70 -3 14 -12 66 -20 116 -15 91 -63 325 -89 439 -8 33 -22 94 -32 135
-31 139 -95 363 -201 710 -58 190 -114 373 -124 408 -10 34 -28 92 -40 130
-11 37 -26 87 -34 112 -15 53 -127 416 -156 509 -82 260 -173 605 -230 871
-22 102 -42 196 -44 210 -3 14 -7 36 -10 50 -9 45 -16 85 -20 110 -2 14 -6 39
-10 55 -28 129 -72 422 -80 530 -4 44 -8 85 -10 92 -7 21 -19 302 -20 440 l0
132 42 43 c59 61 67 102 48 252 -17 141 -46 278 -73 347 -9 24 -8 27 24 38 19
7 34 19 34 27 0 8 9 14 19 14 26 0 32 12 33 58 0 43 -63 239 -94 290 -26 42
-79 76 -160 101 -63 20 -82 24 -168 36 -25 3 -63 8 -85 11 -47 6 -540 16 -546
10z m1783 -15163 c-6 -2 -9 -10 -6 -15 4 -7 2 -8 -5 -4 -13 9 -5 26 12 25 9 0
8 -2 -1 -6z m-2952 -77 c-14 -14 -22 -2 -14 18 5 14 9 15 15 4 4 -7 4 -17 -1
-22z m2890 8 c0 -8 -5 -12 -10 -9 -6 4 -8 11 -5 16 9 14 15 11 15 -7z m-911
-38 c9 -11 9 -16 0 -22 -8 -5 -9 -3 -4 6 5 9 2 10 -13 6 -11 -4 -23 -2 -27 3
-3 7 0 8 9 5 9 -3 16 -1 16 5 0 15 5 14 19 -3z m101 10 c0 -3 -4 -8 -10 -11
-5 -3 -10 -1 -10 4 0 6 5 11 10 11 6 0 10 -2 10 -4z m152 -18 c-7 -7 -12 -8
-12 -2 0 14 12 26 19 19 2 -3 -1 -11 -7 -17z m-792 -12 c0 -3 -4 -8 -10 -11
-5 -3 -10 -1 -10 4 0 6 5 11 10 11 6 0 10 -2 10 -4z"/>
<path d="M9415 381 c-3 -5 -2 -12 3 -15 5 -3 9 1 9 9 0 17 -3 19 -12 6z"/>
<path d="M9390 360 c0 -5 5 -10 11 -10 5 0 7 5 4 10 -3 6 -8 10 -11 10 -2 0
-4 -4 -4 -10z"/>
<path d="M6097 339 c7 -7 15 -10 18 -7 3 3 -2 9 -12 12 -14 6 -15 5 -6 -5z"/>
<path d="M6075 320 c-3 -5 -1 -10 4 -10 6 0 11 5 11 10 0 6 -2 10 -4 10 -3 0
-8 -4 -11 -10z"/>
<path d="M9390 320 c0 -5 5 -10 11 -10 5 0 7 5 4 10 -3 6 -8 10 -11 10 -2 0
-4 -4 -4 -10z"/>
<path d="M6104 306 c-19 -15 -15 -28 11 -32 8 -1 13 2 9 7 -3 5 -10 7 -15 4
-16 -11 -9 7 9 21 23 18 11 18 -14 0z"/>
<path d="M6142 304 c-7 -8 -8 -14 -3 -14 10 0 25 19 20 25 -2 1 -10 -3 -17
-11z"/>
<path d="M9370 305 c0 -8 4 -15 10 -15 5 0 7 7 4 15 -4 8 -8 15 -10 15 -2 0
-4 -7 -4 -15z"/>
<path d="M6185 299 c-4 -6 -4 -13 -1 -16 3 -4 6 -1 6 6 0 7 5 9 10 6 6 -3 10
-1 10 4 0 14 -17 14 -25 0z"/>
<path d="M6150 280 c-13 -8 -12 -10 3 -10 9 0 17 5 17 10 0 12 -1 12 -20 0z"/>
<path d="M6217 283 c-2 -5 -3 -15 -3 -23 1 -8 -8 -23 -19 -33 -19 -18 -19 -18
7 -1 15 9 25 20 22 25 -3 5 2 9 10 9 9 0 16 4 16 10 0 5 -7 6 -17 3 -11 -4
-14 -3 -9 5 4 7 5 12 2 12 -3 0 -7 -3 -9 -7z"/>
<path d="M9241 284 c11 -3 15 -12 12 -23 -3 -10 -1 -21 4 -24 5 -3 8 7 7 21 0
19 -7 28 -20 29 -14 1 -15 1 -3 -3z"/>
<path d="M9295 264 c1 -14 12 -31 26 -40 24 -15 24 -15 4 3 -11 10 -19 25 -17
35 2 9 -1 18 -5 21 -5 3 -8 -6 -8 -19z"/>
<path d="M9350 280 c0 -5 5 -10 11 -10 5 0 7 5 4 10 -3 6 -8 10 -11 10 -2 0
-4 -4 -4 -10z"/>
<path d="M6273 254 c0 -17 2 -22 7 -13 5 6 6 18 3 26 -8 19 -10 16 -10 -13z"/>
<path d="M9121 271 c-8 -5 -9 -11 -3 -15 5 -3 12 1 16 9 6 17 6 18 -13 6z"/>
<path d="M9330 265 c0 -8 4 -15 10 -15 5 0 7 7 4 15 -4 8 -8 15 -10 15 -2 0
-4 -7 -4 -15z"/>
<path d="M6179 263 c-1 -5 -1 -12 0 -16 1 -5 -9 -6 -21 -2 -21 5 -21 5 -5 -5
10 -7 21 -9 25 -6 7 8 12 36 6 36 -2 0 -5 -3 -5 -7z"/>
<path d="M8956 251 c-4 -5 -2 -12 3 -15 5 -4 12 -2 15 3 4 5 2 12 -3 15 -5 4
-12 2 -15 -3z"/>
<path d="M6395 240 c-3 -5 -1 -10 4 -10 6 0 11 5 11 10 0 6 -2 10 -4 10 -3 0
-8 -4 -11 -10z"/>
<path d="M6565 230 c-13 -14 -22 -17 -29 -10 -16 16 -22 12 -22 -14 0 -24 26
-30 34 -8 6 20 20 13 25 -10 2 -13 3 -7 1 12 -3 34 -3 34 10 11 7 -13 16 -20
19 -15 3 5 0 20 -7 32 l-12 23 -19 -21z"/>
<path d="M6607 223 c6 -16 15 -17 30 -2 8 8 13 7 18 -3 5 -7 4 -10 0 -5 -10 8
-65 -41 -65 -57 0 -6 5 -3 11 6 5 10 19 23 30 28 16 9 21 7 29 -12 7 -18 9
-19 9 -5 1 13 7 16 26 13 27 -5 35 11 10 20 -8 4 -12 11 -8 18 4 7 1 7 -7 -1
-11 -10 -17 -10 -28 0 -20 17 -61 17 -55 0z"/>
<path d="M6220 220 c-18 -12 -2 -12 25 0 13 6 15 9 5 9 -8 0 -22 -4 -30 -9z"/>
<path d="M9237 213 c5 -12 3 -14 -7 -8 -9 5 -11 4 -6 -4 4 -6 12 -9 17 -6 12
8 12 35 -1 35 -5 0 -6 -7 -3 -17z"/>
<path d="M9275 219 c-4 -6 -4 -13 -1 -16 3 -4 6 -1 6 6 0 7 5 9 12 5 7 -4 8
-3 4 4 -9 15 -13 15 -21 1z"/>
<path d="M8753 207 c-3 -5 0 -14 6 -20 9 -9 11 -8 5 6 -6 17 -5 18 14 6 11 -7
18 -17 15 -23 -3 -5 -1 -6 5 -2 18 11 14 26 -5 26 -15 0 -16 2 -3 10 11 7 10
9 -8 7 -13 -1 -26 -5 -29 -10z"/>
<path d="M6296 197 c3 -10 9 -15 12 -12 3 3 0 11 -7 18 -10 9 -11 8 -5 -6z"/>
<path d="M8350 197 c-14 -11 -14 -14 2 -29 10 -10 18 -14 18 -9 0 6 -5 13 -10
16 -8 5 -7 11 1 21 14 17 9 18 -11 1z"/>
<path d="M9190 200 c0 -5 5 -10 10 -10 6 0 10 5 10 10 0 6 -4 10 -10 10 -5 0
-10 -4 -10 -10z"/>
<path d="M7010 185 c-7 -9 -8 -15 -2 -15 5 0 12 7 16 15 3 8 4 15 2 15 -2 0
-9 -7 -16 -15z"/>
<path d="M8075 190 c-3 -5 -2 -18 4 -27 7 -14 9 -12 8 10 -2 30 -3 31 -12 17z"/>
<path d="M8210 185 c-9 -11 -9 -15 -1 -15 7 0 9 -5 5 -12 -4 -7 -3 -10 1 -5 9
8 18 47 11 47 -2 0 -9 -7 -16 -15z"/>
<path d="M8910 196 c0 -2 7 -9 15 -16 9 -7 15 -8 15 -2 0 5 -7 12 -15 16 -8 3
-15 4 -15 2z"/>
<path d="M8961 183 c7 -12 15 -20 18 -17 3 2 -3 12 -13 22 -17 16 -18 16 -5
-5z"/>
<path d="M9077 187 c-3 -8 1 -14 8 -14 7 0 11 6 8 14 -6 16 -10 16 -16 0z"/>
<path d="M6390 181 c0 -6 4 -13 10 -16 6 -3 7 1 4 9 -7 18 -14 21 -14 7z"/>
<path d="M7789 179 c-12 -7 -11 -9 3 -9 9 0 18 -6 21 -12 2 -7 7 -11 10 -8 3
3 0 13 -7 22 -8 11 -17 14 -27 7z"/>
<path d="M8167 179 c7 -7 15 -10 18 -7 3 3 -2 9 -12 12 -14 6 -15 5 -6 -5z"/>
<path d="M8593 177 c-3 -6 -1 -7 5 -3 5 3 12 1 14 -6 3 -8 6 -7 10 3 7 17 -19
22 -29 6z"/>
<path d="M8639 173 c-13 -17 -13 -17 6 -3 11 8 22 16 24 17 2 2 0 3 -6 3 -6 0
-17 -8 -24 -17z"/>
<path d="M8855 179 c-4 -6 -5 -12 -2 -15 2 -3 7 2 10 11 7 17 1 20 -8 4z"/>
<path d="M9010 180 c0 -4 7 -7 15 -6 23 3 26 12 5 13 -11 1 -20 -2 -20 -7z"/>
<path d="M9130 186 c0 -2 7 -7 16 -10 8 -3 12 -2 9 4 -6 10 -25 14 -25 6z"/>
<path d="M6468 173 c7 -3 16 -2 19 1 4 3 -2 6 -13 5 -11 0 -14 -3 -6 -6z"/>
<path d="M7328 168 c9 -9 9 -15 -1 -27 -11 -14 -10 -14 6 -2 13 10 15 17 6 27
-6 8 -14 14 -17 14 -3 0 -1 -5 6 -12z"/>
<path d="M7494 169 c-4 -7 -3 -9 4 -5 5 3 13 0 15 -6 4 -9 6 -10 6 -1 1 17
-16 25 -25 12z"/>
<path d="M8010 171 c0 -6 4 -13 10 -16 6 -3 7 1 4 9 -7 18 -14 21 -14 7z"/>
<path d="M8042 167 c10 -8 14 -18 10 -22 -4 -5 -1 -5 6 -1 17 10 15 14 -10 26
-21 10 -21 10 -6 -3z"/>
<path d="M8275 169 c-4 -6 -5 -12 -2 -15 2 -3 7 2 10 11 7 17 1 20 -8 4z"/>
<path d="M8390 170 c8 -5 20 -10 25 -10 6 0 3 5 -5 10 -8 5 -19 10 -25 10 -5
0 -3 -5 5 -10z"/>
<path d="M8435 170 c-3 -6 1 -7 9 -4 18 7 21 14 7 14 -6 0 -13 -4 -16 -10z"/>
<path d="M8875 169 c-4 -6 -5 -12 -2 -15 2 -3 7 2 10 11 7 17 1 20 -8 4z"/>
<path d="M6495 160 c-3 -6 1 -7 9 -4 18 7 21 14 7 14 -6 0 -13 -4 -16 -10z"/>
<path d="M6533 163 c4 -6 2 -13 -5 -15 -8 -3 -6 -6 4 -10 17 -7 19 15 3 29 -4
4 -5 3 -2 -4z"/>
<path d="M6620 166 c0 -2 7 -6 15 -10 8 -3 15 -1 15 4 0 6 -7 10 -15 10 -8 0
-15 -2 -15 -4z"/>
<path d="M6793 163 c4 -3 1 -13 -6 -22 -11 -14 -10 -14 6 -2 20 15 22 31 5 31
-6 0 -8 -3 -5 -7z"/>
<path d="M6910 160 c0 -5 5 -10 10 -10 6 0 10 5 10 10 0 6 -4 10 -10 10 -5 0
-10 -4 -10 -10z"/>
<path d="M7070 159 c0 -5 5 -7 10 -4 6 3 10 8 10 11 0 2 -4 4 -10 4 -5 0 -10
-5 -10 -11z"/>
<path d="M7110 160 c8 -5 18 -6 24 -3 5 4 7 0 4 -9 -4 -8 0 -15 7 -15 24 0 -1
32 -27 34 -17 2 -19 0 -8 -7z"/>
<path d="M7190 160 c0 -5 7 -7 15 -4 8 4 15 8 15 10 0 2 -7 4 -15 4 -8 0 -15
-4 -15 -10z"/>
<path d="M7244 159 c-4 -7 -3 -9 4 -5 6 3 13 -2 15 -11 4 -16 5 -16 6 -1 1 21
-15 32 -25 17z"/>
<path d="M7293 155 c-3 -9 -3 -19 1 -22 3 -4 6 1 6 11 0 10 5 14 12 10 7 -4 8
-3 4 4 -10 16 -15 15 -23 -3z"/>
<path d="M7530 148 c-10 -21 -10 -21 3 -6 8 10 18 14 22 10 5 -4 5 -1 1 6 -10
17 -14 15 -26 -10z"/>
<path d="M7854 162 c3 -5 1 -12 -6 -14 -8 -3 -9 -6 -1 -11 6 -4 13 0 17 8 3 8
0 17 -6 21 -6 4 -8 3 -4 -4z"/>
<path d="M7899 168 c-8 -27 -5 -36 9 -30 10 4 12 7 4 10 -7 2 -10 8 -6 13 3 5
3 9 0 9 -3 0 -6 -1 -7 -2z"/>
<path d="M7990 161 c0 -6 4 -13 10 -16 6 -3 7 1 4 9 -7 18 -14 21 -14 7z"/>
<path d="M8116 153 c-6 -14 -5 -15 5 -6 7 7 10 15 7 18 -3 3 -9 -2 -12 -12z"/>
<path d="M8296 161 c-4 -5 3 -7 14 -4 23 6 26 13 6 13 -8 0 -17 -4 -20 -9z"/>
<path d="M8470 160 c0 -5 5 -10 10 -10 6 0 10 5 10 10 0 6 -4 10 -10 10 -5 0
-10 -4 -10 -10z"/>
<path d="M8570 160 c0 -5 5 -10 11 -10 5 0 7 5 4 10 -3 6 -8 10 -11 10 -2 0
-4 -4 -4 -10z"/>
<path d="M8662 165 c3 -3 16 -8 28 -10 12 -2 20 -1 16 2 -4 4 -16 8 -28 10
-12 2 -19 1 -16 -2z"/>
<path d="M8900 166 c0 -2 7 -7 16 -10 8 -3 12 -2 9 4 -6 10 -25 14 -25 6z"/>
<path d="M6751 144 c0 -11 3 -14 6 -6 3 7 2 16 -1 19 -3 4 -6 -2 -5 -13z"/>
<path d="M6830 150 c-8 -5 -12 -12 -9 -15 4 -3 12 1 19 10 14 17 11 19 -10 5z"/>
<path d="M6867 147 c-3 -8 1 -14 8 -14 7 0 11 6 8 14 -3 7 -6 13 -8 13 -2 0
-5 -6 -8 -13z"/>
<path d="M6950 150 c-8 -5 -12 -12 -9 -15 4 -3 12 1 19 10 14 17 11 19 -10 5z"/>
<path d="M6990 151 c0 -6 4 -13 10 -16 6 -3 7 1 4 9 -7 18 -14 21 -14 7z"/>
<path d="M7051 144 c0 -11 3 -14 6 -6 3 7 2 16 -1 19 -3 4 -6 -2 -5 -13z"/>
<path d="M7170 151 c0 -6 4 -13 10 -16 6 -3 7 1 4 9 -7 18 -14 21 -14 7z"/>
<path d="M7380 151 c0 -6 4 -13 10 -16 6 -3 7 1 4 9 -7 18 -14 21 -14 7z"/>
<path d="M7433 153 c-17 -6 -17 -20 0 -20 8 0 14 6 14 14 0 7 -1 13 -1 12 -1
0 -7 -3 -13 -6z"/>
<path d="M7664 144 c-18 -14 -18 -15 4 -4 12 6 22 13 22 15 0 8 -5 6 -26 -11z"/>
<path d="M7766 143 c-6 -14 -5 -15 5 -6 7 7 10 15 7 18 -3 3 -9 -2 -12 -12z"/>
<path d="M8341 144 c0 -11 3 -14 6 -6 3 7 2 16 -1 19 -3 4 -6 -2 -5 -13z"/>
<path d="M7085 140 c-3 -6 1 -7 9 -4 18 7 21 14 7 14 -6 0 -13 -4 -16 -10z"/>
<path d="M7210 139 c0 -5 5 -7 10 -4 6 3 10 8 10 11 0 2 -4 4 -10 4 -5 0 -10
-5 -10 -11z"/>
<path d="M7715 140 c-3 -6 1 -7 9 -4 18 7 21 14 7 14 -6 0 -13 -4 -16 -10z"/>
<path d="M8415 140 c3 -5 8 -10 11 -10 2 0 4 5 4 10 0 6 -5 10 -11 10 -5 0 -7
-4 -4 -10z"/>
</g>
</svg>
